<svg
                                    xmlns="http://www.w3.org/2000/svg"
                                    fill="none"
                                    width="24"
                                    height="24"
                                    viewBox="0 0 24 24"
                                    role="img"
                                    data-icon="AudioDescriptionStandard"
                                    aria-hidden="true"
                                    className="w-8 h-8"
                                >
                                    <path
                                        fill-rule="evenodd"
                                        clip-rule="evenodd"
                                        d="M21.9782 7.52002H22.2621C23.37 8.81831 24.0001 10.4801 24.0001 12.2077C24.0001 13.7414 23.505 15.2301 22.6221 16.4453H22.3348H21.8501H21.5662C22.5598 15.2613 23.1207 13.7691 23.1207 12.2077C23.1207 10.449 22.404 8.75599 21.1611 7.52002H21.445H21.9782ZM6.91381 16.4796H8.87336V7.52661H6.42566L0 16.4796H2.87701L3.63174 15.2956H6.91381V16.4796ZM4.8625 13.4299H6.92592V10.224L4.8625 13.4299ZM12.3019 9.62283C13.621 9.62283 14.6839 10.6926 14.6839 12.0048C14.6839 13.3203 13.621 14.3901 12.3019 14.3901H11.6787V9.62283H12.3019ZM12.5443 16.4743C15.0128 16.4743 17.0208 14.4698 17.0208 12.0048C17.0208 9.52935 15.0335 7.52826 12.565 7.52826H12.5373H9.79883V16.4778H12.5443V16.4743ZM20.0103 7.52002H19.7264H19.1932H18.9093C20.1522 8.75599 20.8689 10.449 20.8689 12.2077C20.8689 13.7691 20.308 15.2613 19.3144 16.4453H19.5983H20.083H20.3634C21.2531 15.2301 21.7482 13.7414 21.7482 12.2077C21.7482 10.4801 21.1181 8.81831 20.0103 7.52002ZM17.4745 7.52002H17.7584C18.8663 8.81831 19.4895 10.4801 19.4895 12.2077C19.4895 13.7414 19.0013 15.2301 18.1116 16.4453H17.8277H17.3464H17.0625C18.0492 15.2613 18.6101 13.7691 18.6101 12.2077C18.6101 10.449 17.9004 8.75599 16.6575 7.52002H16.9344H17.4745Z"
                                        fill="#fff"
                                    ></path>
                                </svg>