<svg width="113" height="113" viewBox="0 0 113 113" fill="none">
<g clip-path="url(#clip0_3278_2069)">
    <path d="M45.5635 69.5L41.0635 63.5L45.5635 56L50.0635 68.5C49.7301 71.5 48.1635 78.6 46.5635 77C44.9635 75.4 45.2301 71.3333 45.5635 69.5Z" fill="url(#paint0_radial_3278_2069)"></path><path d="M54.0635 70C54.8635 66.8 52.0635 57.1667 50.0635 53.5L45.5635 59L49.5635 69.5C48.5635 76 50.0635 79.5 51.0635 79C52.0635 78.5 53.0635 74 54.0635 70Z" fill="url(#paint1_radial_3278_2069)"></path><circle cx="72.5" cy="39.25" r="38.5" fill="url(#paint2_radial_3278_2069)"></circle><path d="M16.5 76.5C15.7 84.5 0 99 0 99L18 113C18 113 24.0635 90.5 32.5 86C37.3999 83.3864 40.3187 78.5802 42.0027 73.7365C44.1274 67.6252 46.3026 61.3689 50.5636 56.5C52.5855 60.5438 55.3792 62.5383 57.7088 63.4167C59.408 64.0573 60.7259 62.4206 60.3463 60.6448L57.75 48.5L44 36L29.3819 43.1466C24.4071 45.5788 20.8243 50.1646 19.8081 55.6081C18.5168 62.5258 17.0259 71.2413 16.5 76.5Z" fill="url(#paint3_radial_3278_2069)"></path><g opacity="0.4" filter="url(#filter0_f_3278_2069)"><path d="M51.2351 42.0014C53.0039 46.4044 48.5651 55.9594 46.1245 60.1865C43.4254 55.5283 38.7592 44.9436 41.6879 39.871C45.3487 33.5303 49.024 36.4977 51.2351 42.0014Z" fill="#BB3A80"></path></g><path fill-rule="evenodd" clip-rule="evenodd" d="M57.8862 50.4128L58.9304 54.3096L93.9751 44.9194L92.1379 38.0627L92.1378 38.0627C89.8717 38.6699 87.5424 37.3251 86.9352 35.059C86.328 32.7929 87.6729 30.4637 89.939 29.8565L89.939 29.8565L88.1018 22.9999L53.0571 32.3901L54.1012 36.2869L52.1694 36.8046L51.1252 32.9078L38.0001 36.4247L39.845 43.3098C40.0101 43.2423 40.1813 43.1845 40.3581 43.1371C42.6266 42.5293 44.9584 43.8755 45.5662 46.144C46.174 48.4125 44.8278 50.7442 42.5593 51.352C42.3825 51.3994 42.2053 51.4349 42.0285 51.459L43.8734 58.3441L56.9985 54.8273L55.9544 50.9305L57.8862 50.4128ZM56.2641 44.3589L57.3455 48.3948L55.4137 48.9125L54.3322 44.8765L56.2641 44.3589ZM54.6419 38.3049L55.7234 42.3409L53.7915 42.8585L52.7101 38.8225L54.6419 38.3049ZM75.8432 40.1899L79.1375 45.4239C79.251 45.6042 79.0739 45.8266 78.8728 45.7564L72.949 43.6886L68.8527 48.4413C68.7136 48.6026 68.4491 48.4985 68.4572 48.2857L68.6931 42.1057L63.5591 40.0771C63.3669 40.0012 63.3701 39.7288 63.5644 39.6584C65.2847 39.0352 67.0601 38.4514 68.8833 37.913L69.4468 31.436C69.4651 31.2265 69.7351 31.1542 69.8556 31.3265L73.5821 36.6539C75.4303 36.2086 77.2597 35.8265 79.0611 35.506C79.2645 35.4699 79.4035 35.7042 79.2751 35.866L75.8432 40.1899Z" fill="url(#paint4_radial_3278_2069)"></path><g opacity="0.4" filter="url(#filter1_f_3278_2069)"><path d="M36.6959 50.6667C39.6246 46.9333 50.1189 46 55 46C52.3154 50.6667 45.4819 60 39.6246 60C32.303 60 33.0351 55.3333 36.6959 50.6667Z" fill="#651970"></path></g><g opacity="0.8" filter="url(#filter2_f_3278_2069)"><path d="M60.3041 54.3333C57.3754 58.0667 46.8811 59 42 59C44.6846 54.3333 51.5181 45 57.3754 45C64.697 45 63.9649 49.6667 60.3041 54.3333Z" fill="#651970"></path></g><path d="M40.5002 52.5C38.1002 54.1 32.8335 56.3333 30.5002 56.9999C25.5002 68.4999 41.0002 75.5 42.5002 70.5C44.0002 65.5 55.5002 53 58.5002 51C61.5002 49 66.0002 43.5 61.5002 43C57.0002 42.5 43.5002 50.5 40.5002 52.5Z" fill="url(#paint5_radial_3278_2069)"></path>
</g>
<defs>
<filter id="filter0_f_3278_2069" x="36.7554" y="32.2964" width="18.8857" height="31.8901" filterUnits="userSpaceOnUse" color-interpolation-filters="sRGB">
    <feFlood flood-opacity="0" result="BackgroundImageFix"></feFlood>
    <feBlend mode="normal" in="SourceGraphic" in2="BackgroundImageFix" result="shape"></feBlend>
    <feGaussianBlur stdDeviation="2" result="effect1_foregroundBlur_3278_2069">
    </feGaussianBlur>
</filter>
<filter id="filter1_f_3278_2069" x="30" y="42" width="29" height="22" filterUnits="userSpaceOnUse" color-interpolation-filters="sRGB">
    <feFlood flood-opacity="0" result="BackgroundImageFix"></feFlood>
    <feBlend mode="normal" in="SourceGraphic" in2="BackgroundImageFix" result="shape"></feBlend>
    <feGaussianBlur stdDeviation="2" result="effect1_foregroundBlur_3278_2069"></feGaussianBlur>
</filter>
<filter id="filter2_f_3278_2069" x="38" y="41" width="29" height="22" filterUnits="userSpaceOnUse" color-interpolation-filters="sRGB">
    <feFlood flood-opacity="0" result="BackgroundImageFix"></feFlood><feBlend mode="normal" in="SourceGraphic" in2="BackgroundImageFix" result="shape">
    </feBlend>
    <feGaussianBlur stdDeviation="2" result="effect1_foregroundBlur_3278_2069"></feGaussianBlur>
</filter>
    <radialGradient id="paint0_radial_3278_2069" cx="0" cy="0" r="1" gradientUnits="userSpaceOnUse" gradientTransform="translate(46.5 77.5) rotate(-83.6598) scale(13.5831)"><stop stop-color="#FF661D"></stop><stop offset="0.660522" stop-color="#9C26AD"></stop><stop offset="1" stop-color="#510839"></stop></radialGradient><radialGradient id="paint1_radial_3278_2069" cx="0" cy="0" r="1" gradientUnits="userSpaceOnUse" gradientTransform="translate(52.5 79) rotate(-96.953) scale(20.6519 6.9845)"><stop offset="0.364176" stop-color="#FF661D"></stop><stop offset="1" stop-color="#9C26AD"></stop></radialGradient><radialGradient id="paint2_radial_3278_2069" cx="0" cy="0" r="1" gradientUnits="userSpaceOnUse" gradientTransform="translate(72.5 39.4559) rotate(-90) scale(38.7059)"><stop stop-color="#FFCA45"></stop><stop offset="0.435" stop-color="#FF5200" stop-opacity="0.26"></stop><stop offset="1" stop-color="white" stop-opacity="0"></stop></radialGradient><radialGradient id="paint3_radial_3278_2069" cx="0" cy="0" r="1" gradientUnits="userSpaceOnUse" gradientTransform="translate(54.0635 46.5) rotate(123.476) scale(74.3303)"><stop offset="0.310969" stop-color="#FF661D"></stop><stop offset="0.665811" stop-color="#A62D61"></stop><stop offset="0.759001" stop-color="#7D2889"></stop><stop offset="0.864103" stop-color="#7D2889" stop-opacity="0.75"></stop><stop offset="1" stop-color="#7D2889" stop-opacity="0"></stop></radialGradient><radialGradient id="paint4_radial_3278_2069" cx="0" cy="0" r="1" gradientUnits="userSpaceOnUse" gradientTransform="translate(73 46.5) rotate(143.393) scale(43.6005)"><stop offset="0.104257" stop-color="#FF66D9"></stop><stop offset="0.370706" stop-color="#FC5E1D"></stop><stop offset="0.732235" stop-color="#B20710"></stop></radialGradient>
    <radialGradient id="paint5_radial_3278_2069" cx="0" cy="0" r="1" gradientUnits="userSpaceOnUse" gradientTransform="translate(58.0843 53.5666) rotate(90) scale(62.9334 70.406)">
    <stop stop-color="#FF9F5E">
    </stop>
    <stop offset="0.334614" stop-color="#F56025"></stop>
    <stop offset="0.416049" stop-color="#EC5A39" stop-opacity="0"></stop>
    </radialGradient>
    <clipPath id="clip0_3278_2069">
    <rect width="113" height="113" fill="white"></rect>
    </clipPath>
    </defs>
</svg>